<svg xmlns="http://www.w3.org/2000/svg" xmlns:xlink="http://www.w3.org/1999/xlink" width="500" zoomAndPan="magnify" viewBox="0 0 375 374.999991" height="500" preserveAspectRatio="xMidYMid meet" version="1.0"><defs><g/><clipPath id="8852f31ab0"><path d="M 86.820312 119.796875 L 217.519531 119.796875 L 217.519531 250.492188 L 86.820312 250.492188 Z M 86.820312 119.796875 " clip-rule="nonzero"/></clipPath><clipPath id="5bbc93d8dc"><path d="M 152.171875 119.796875 C 116.078125 119.796875 86.820312 149.054688 86.820312 185.144531 C 86.820312 221.234375 116.078125 250.492188 152.171875 250.492188 C 188.261719 250.492188 217.519531 221.234375 217.519531 185.144531 C 217.519531 149.054688 188.261719 119.796875 152.171875 119.796875 Z M 152.171875 119.796875 " clip-rule="nonzero"/></clipPath><clipPath id="51d088c5a5"><path d="M 0.820312 0.796875 L 131.519531 0.796875 L 131.519531 131.492188 L 0.820312 131.492188 Z M 0.820312 0.796875 " clip-rule="nonzero"/></clipPath><clipPath id="2a7df02b7f"><path d="M 66.171875 0.796875 C 30.078125 0.796875 0.820312 30.054688 0.820312 66.144531 C 0.820312 102.234375 30.078125 131.492188 66.171875 131.492188 C 102.261719 131.492188 131.519531 102.234375 131.519531 66.144531 C 131.519531 30.054688 102.261719 0.796875 66.171875 0.796875 Z M 66.171875 0.796875 " clip-rule="nonzero"/></clipPath><clipPath id="2e4e8ebb16"><rect x="0" width="132" y="0" height="132"/></clipPath><clipPath id="503fe675a7"><path d="M 64 191 L 130 191 L 130 252 L 64 252 Z M 64 191 " clip-rule="nonzero"/></clipPath><clipPath id="db185fc92b"><path d="M 129.246094 191.699219 L 135.609375 247.589844 L 66.304688 255.476562 L 59.945312 199.585938 Z M 129.246094 191.699219 " clip-rule="nonzero"/></clipPath><clipPath id="e0af34feb2"><path d="M 129.246094 191.699219 L 135.609375 247.589844 L 66.304688 255.476562 L 59.945312 199.585938 Z M 129.246094 191.699219 " clip-rule="nonzero"/></clipPath><clipPath id="c74301486b"><path d="M 129.246094 191.699219 L 135.609375 247.589844 L 66.304688 255.476562 L 59.945312 199.585938 Z M 129.246094 191.699219 " clip-rule="nonzero"/></clipPath><clipPath id="f25c711d00"><path d="M 129.242188 191.699219 L 135.605469 247.59375 L 66.300781 255.480469 L 59.941406 199.585938 Z M 129.242188 191.699219 " clip-rule="nonzero"/></clipPath></defs><g clip-path="url(#8852f31ab0)"><g clip-path="url(#5bbc93d8dc)"><g transform="matrix(1, 0, 0, 1, 86, 119)"><g clip-path="url(#2e4e8ebb16)"><g clip-path="url(#51d088c5a5)"><g clip-path="url(#2a7df02b7f)"><path fill="#38b6ff" d="M 0.820312 0.796875 L 131.519531 0.796875 L 131.519531 131.492188 L 0.820312 131.492188 Z M 0.820312 0.796875 " fill-opacity="1" fill-rule="nonzero"/></g></g></g></g></g></g><g fill="#1d1d1b" fill-opacity="1"><g transform="translate(135.58939, 171.640477)"><g><path d="M 0 7.234375 L 0 1.125 L 26.03125 1.125 L 26.03125 7.234375 Z M 0 7.234375 "/></g></g></g><g fill="#1d1d1b" fill-opacity="1"><g transform="translate(161.623026, 171.640477)"><g><path d="M 0 7.234375 L 0 1.125 L 26.03125 1.125 L 26.03125 7.234375 Z M 0 7.234375 "/></g></g></g><g fill="#1d1d1b" fill-opacity="1"><g transform="translate(187.656662, 171.640477)"><g><path d="M 12.21875 0.5625 C 10.875 0.5625 9.695312 0.390625 8.6875 0.046875 C 7.6875 -0.296875 6.847656 -0.832031 6.171875 -1.5625 C 5.503906 -2.300781 5 -3.25 4.65625 -4.40625 C 4.3125 -5.570312 4.140625 -6.953125 4.140625 -8.546875 L 4.140625 -19.359375 L 0.609375 -19.359375 L 0.75 -24.578125 L 3.015625 -24.578125 C 4.046875 -24.609375 4.8125 -24.785156 5.3125 -25.109375 C 5.8125 -25.441406 6.109375 -26.035156 6.203125 -26.890625 L 6.765625 -30.171875 L 10.625 -30.171875 L 10.625 -24.671875 L 16.828125 -24.671875 L 16.828125 -19.171875 L 10.625 -19.171875 L 10.625 -8.890625 C 10.625 -7.597656 10.9375 -6.734375 11.5625 -6.296875 C 12.1875 -5.859375 12.953125 -5.640625 13.859375 -5.640625 C 14.429688 -5.640625 15 -5.707031 15.5625 -5.84375 C 16.125 -5.988281 16.609375 -6.1875 17.015625 -6.4375 L 17.015625 -0.140625 C 16.046875 0.140625 15.148438 0.328125 14.328125 0.421875 C 13.515625 0.515625 12.8125 0.5625 12.21875 0.5625 Z M 12.21875 0.5625 "/></g></g></g><g fill="#1d1d1b" fill-opacity="1"><g transform="translate(206.171553, 171.640477)"><g><path d="M 3.015625 0 L 3.015625 -24.671875 L 9.78125 -24.671875 L 9.78125 0 Z M 6.390625 -28.25 C 5.078125 -28.25 4.066406 -28.53125 3.359375 -29.09375 C 2.648438 -29.65625 2.296875 -30.453125 2.296875 -31.484375 C 2.296875 -32.585938 2.648438 -33.421875 3.359375 -33.984375 C 4.066406 -34.546875 5.078125 -34.828125 6.390625 -34.828125 C 7.734375 -34.828125 8.757812 -34.546875 9.46875 -33.984375 C 10.175781 -33.421875 10.53125 -32.585938 10.53125 -31.484375 C 10.53125 -30.453125 10.175781 -29.65625 9.46875 -29.09375 C 8.757812 -28.53125 7.734375 -28.25 6.390625 -28.25 Z M 6.390625 -28.25 "/></g></g></g><g fill="#1d1d1b" fill-opacity="1"><g transform="translate(218.953412, 171.640477)"><g><path d="M 3.015625 0 L 3.015625 -24.671875 L 8.453125 -24.671875 L 8.40625 -17.015625 L 9.3125 -17.015625 C 9.71875 -18.921875 10.269531 -20.484375 10.96875 -21.703125 C 11.675781 -22.929688 12.546875 -23.84375 13.578125 -24.4375 C 14.617188 -25.03125 15.828125 -25.328125 17.203125 -25.328125 C 18.296875 -25.328125 19.25 -25.140625 20.0625 -24.765625 C 20.882812 -24.390625 21.578125 -23.859375 22.140625 -23.171875 C 22.703125 -22.484375 23.144531 -21.617188 23.46875 -20.578125 C 23.800781 -19.546875 24.015625 -18.375 24.109375 -17.0625 L 24.859375 -17.0625 C 25.296875 -18.96875 25.90625 -20.53125 26.6875 -21.75 C 27.476562 -22.976562 28.4375 -23.878906 29.5625 -24.453125 C 30.6875 -25.035156 31.925781 -25.328125 33.28125 -25.328125 C 34.84375 -25.328125 36.132812 -25.003906 37.15625 -24.359375 C 38.175781 -23.722656 38.96875 -22.894531 39.53125 -21.875 C 40.09375 -20.851562 40.515625 -19.769531 40.796875 -18.625 C 41.078125 -17.488281 41.25 -16.378906 41.3125 -15.296875 C 41.375 -14.210938 41.40625 -13.328125 41.40625 -12.640625 L 41.40625 0 L 34.640625 0 L 34.640625 -11.84375 C 34.640625 -12.4375 34.613281 -13.164062 34.5625 -14.03125 C 34.519531 -14.894531 34.375 -15.738281 34.125 -16.5625 C 33.875 -17.394531 33.472656 -18.09375 32.921875 -18.65625 C 32.367188 -19.21875 31.609375 -19.5 30.640625 -19.5 C 29.640625 -19.5 28.753906 -19.144531 27.984375 -18.4375 C 27.222656 -17.738281 26.628906 -16.769531 26.203125 -15.53125 C 25.773438 -14.289062 25.546875 -12.828125 25.515625 -11.140625 L 25.515625 0 L 18.890625 0 L 18.890625 -11.609375 C 18.890625 -12.171875 18.863281 -12.890625 18.8125 -13.765625 C 18.769531 -14.648438 18.625 -15.53125 18.375 -16.40625 C 18.125 -17.28125 17.722656 -18.015625 17.171875 -18.609375 C 16.628906 -19.203125 15.84375 -19.5 14.8125 -19.5 C 13.800781 -19.5 12.921875 -19.144531 12.171875 -18.4375 C 11.421875 -17.738281 10.84375 -16.757812 10.4375 -15.5 C 10.03125 -14.25 9.8125 -12.796875 9.78125 -11.140625 L 9.78125 0 Z M 3.015625 0 "/></g></g></g><g fill="#1d1d1b" fill-opacity="1"><g transform="translate(263.032022, 171.640477)"><g><path d="M 11.28125 0.65625 C 10.0625 0.65625 8.976562 0.484375 8.03125 0.140625 C 7.09375 -0.203125 6.285156 -0.707031 5.609375 -1.375 C 4.941406 -2.050781 4.390625 -2.867188 3.953125 -3.828125 C 3.515625 -4.785156 3.179688 -5.882812 2.953125 -7.125 C 2.734375 -8.363281 2.625 -9.734375 2.625 -11.234375 L 2.625 -24.671875 L 9.453125 -24.671875 L 9.453125 -12.734375 C 9.453125 -12.046875 9.472656 -11.265625 9.515625 -10.390625 C 9.566406 -9.515625 9.722656 -8.660156 9.984375 -7.828125 C 10.253906 -6.992188 10.6875 -6.3125 11.28125 -5.78125 C 11.875 -5.25 12.703125 -4.984375 13.765625 -4.984375 C 14.648438 -4.984375 15.410156 -5.191406 16.046875 -5.609375 C 16.691406 -6.035156 17.25 -6.644531 17.71875 -7.4375 C 18.1875 -8.238281 18.535156 -9.179688 18.765625 -10.265625 C 19.003906 -11.347656 19.140625 -12.53125 19.171875 -13.8125 L 19.171875 -24.671875 L 25.9375 -24.671875 L 25.9375 0 L 20.4375 0 L 20.4375 -7.890625 L 19.59375 -7.890625 C 19.1875 -5.890625 18.625 -4.257812 17.90625 -3 C 17.1875 -1.75 16.285156 -0.828125 15.203125 -0.234375 C 14.117188 0.359375 12.8125 0.65625 11.28125 0.65625 Z M 11.28125 0.65625 "/></g></g></g><g fill="#1d1d1b" fill-opacity="1"><g transform="translate(291.979164, 171.640477)"><g><path d="M 3.015625 0 L 3.015625 -24.671875 L 8.640625 -24.671875 L 8.59375 -16.125 L 9.5 -16.125 C 9.75 -18.25 10.171875 -19.984375 10.765625 -21.328125 C 11.359375 -22.679688 12.195312 -23.671875 13.28125 -24.296875 C 14.363281 -24.921875 15.703125 -25.234375 17.296875 -25.234375 C 17.609375 -25.234375 17.9375 -25.21875 18.28125 -25.1875 C 18.625 -25.15625 19.015625 -25.09375 19.453125 -25 L 19.21875 -17.8125 C 18.6875 -18.03125 18.144531 -18.1875 17.59375 -18.28125 C 17.050781 -18.375 16.546875 -18.421875 16.078125 -18.421875 C 14.878906 -18.421875 13.84375 -18.140625 12.96875 -17.578125 C 12.09375 -17.015625 11.394531 -16.195312 10.875 -15.125 C 10.363281 -14.0625 10 -12.75 9.78125 -11.1875 L 9.78125 0 Z M 3.015625 0 "/></g></g></g><g fill="#1d1d1b" fill-opacity="1"><g transform="translate(135.58939, 216.640474)"><g><path d="M 3.015625 0 L 3.015625 -33.515625 L 9.6875 -33.515625 L 9.6875 0 Z M 3.015625 0 "/></g></g></g><g fill="#1d1d1b" fill-opacity="1"><g transform="translate(148.230269, 216.640474)"><g><path d="M 8.84375 0.65625 C 7.457031 0.65625 6.234375 0.390625 5.171875 -0.140625 C 4.109375 -0.671875 3.269531 -1.445312 2.65625 -2.46875 C 2.039062 -3.488281 1.734375 -4.734375 1.734375 -6.203125 C 1.734375 -7.921875 2.117188 -9.28125 2.890625 -10.28125 C 3.660156 -11.289062 4.644531 -12.0625 5.84375 -12.59375 C 7.050781 -13.125 8.328125 -13.503906 9.671875 -13.734375 C 11.023438 -13.972656 12.28125 -14.171875 13.4375 -14.328125 C 14.507812 -14.484375 15.375 -14.648438 16.03125 -14.828125 C 16.6875 -15.003906 17.160156 -15.253906 17.453125 -15.578125 C 17.753906 -15.910156 17.90625 -16.359375 17.90625 -16.921875 C 17.90625 -17.546875 17.765625 -18.09375 17.484375 -18.5625 C 17.203125 -19.03125 16.78125 -19.410156 16.21875 -19.703125 C 15.65625 -20.003906 14.914062 -20.15625 14 -20.15625 C 13.125 -20.15625 12.296875 -20 11.515625 -19.6875 C 10.734375 -19.375 10.066406 -18.894531 9.515625 -18.25 C 8.960938 -17.613281 8.59375 -16.8125 8.40625 -15.84375 L 2.390625 -17.53125 C 2.734375 -18.875 3.257812 -20.03125 3.96875 -21 C 4.675781 -21.976562 5.53125 -22.785156 6.53125 -23.421875 C 7.53125 -24.066406 8.65625 -24.546875 9.90625 -24.859375 C 11.164062 -25.171875 12.53125 -25.328125 14 -25.328125 C 15.914062 -25.328125 17.546875 -25.09375 18.890625 -24.625 C 20.242188 -24.15625 21.332031 -23.441406 22.15625 -22.484375 C 22.988281 -21.535156 23.597656 -20.378906 23.984375 -19.015625 C 24.378906 -17.648438 24.578125 -16.085938 24.578125 -14.328125 L 24.578125 -10.109375 C 24.578125 -9.035156 24.59375 -7.925781 24.625 -6.78125 C 24.65625 -5.644531 24.707031 -4.507812 24.78125 -3.375 C 24.863281 -2.25 24.953125 -1.125 25.046875 0 L 19.078125 0 C 18.984375 -0.84375 18.878906 -1.773438 18.765625 -2.796875 C 18.660156 -3.816406 18.59375 -4.859375 18.5625 -5.921875 L 17.765625 -5.921875 C 17.328125 -4.734375 16.695312 -3.628906 15.875 -2.609375 C 15.0625 -1.585938 14.0625 -0.785156 12.875 -0.203125 C 11.6875 0.367188 10.34375 0.65625 8.84375 0.65625 Z M 11.703125 -4.28125 C 12.296875 -4.28125 12.894531 -4.378906 13.5 -4.578125 C 14.113281 -4.785156 14.710938 -5.09375 15.296875 -5.5 C 15.878906 -5.90625 16.410156 -6.421875 16.890625 -7.046875 C 17.378906 -7.671875 17.765625 -8.378906 18.046875 -9.171875 L 17.953125 -12.875 L 19.03125 -12.6875 C 18.5 -12.28125 17.863281 -11.957031 17.125 -11.71875 C 16.394531 -11.488281 15.628906 -11.3125 14.828125 -11.1875 C 14.023438 -11.0625 13.234375 -10.921875 12.453125 -10.765625 C 11.671875 -10.609375 10.96875 -10.40625 10.34375 -10.15625 C 9.71875 -9.90625 9.210938 -9.554688 8.828125 -9.109375 C 8.453125 -8.671875 8.265625 -8.078125 8.265625 -7.328125 C 8.265625 -6.390625 8.585938 -5.644531 9.234375 -5.09375 C 9.878906 -4.550781 10.703125 -4.28125 11.703125 -4.28125 Z M 11.703125 -4.28125 "/></g></g></g><g fill="#1d1d1b" fill-opacity="1"><g transform="translate(175.532689, 216.640474)"><g><path d="M 11.28125 0.65625 C 10.0625 0.65625 8.976562 0.484375 8.03125 0.140625 C 7.09375 -0.203125 6.285156 -0.707031 5.609375 -1.375 C 4.941406 -2.050781 4.390625 -2.867188 3.953125 -3.828125 C 3.515625 -4.785156 3.179688 -5.882812 2.953125 -7.125 C 2.734375 -8.363281 2.625 -9.734375 2.625 -11.234375 L 2.625 -24.671875 L 9.453125 -24.671875 L 9.453125 -12.734375 C 9.453125 -12.046875 9.472656 -11.265625 9.515625 -10.390625 C 9.566406 -9.515625 9.722656 -8.660156 9.984375 -7.828125 C 10.253906 -6.992188 10.6875 -6.3125 11.28125 -5.78125 C 11.875 -5.25 12.703125 -4.984375 13.765625 -4.984375 C 14.648438 -4.984375 15.410156 -5.191406 16.046875 -5.609375 C 16.691406 -6.035156 17.25 -6.644531 17.71875 -7.4375 C 18.1875 -8.238281 18.535156 -9.179688 18.765625 -10.265625 C 19.003906 -11.347656 19.140625 -12.53125 19.171875 -13.8125 L 19.171875 -24.671875 L 25.9375 -24.671875 L 25.9375 0 L 20.4375 0 L 20.4375 -7.890625 L 19.59375 -7.890625 C 19.1875 -5.890625 18.625 -4.257812 17.90625 -3 C 17.1875 -1.75 16.285156 -0.828125 15.203125 -0.234375 C 14.117188 0.359375 12.8125 0.65625 11.28125 0.65625 Z M 11.28125 0.65625 "/></g></g></g><g fill="#1d1d1b" fill-opacity="1"><g transform="translate(204.479831, 216.640474)"><g><path d="M 12.21875 0.5625 C 10.875 0.5625 9.695312 0.390625 8.6875 0.046875 C 7.6875 -0.296875 6.847656 -0.832031 6.171875 -1.5625 C 5.503906 -2.300781 5 -3.25 4.65625 -4.40625 C 4.3125 -5.570312 4.140625 -6.953125 4.140625 -8.546875 L 4.140625 -19.359375 L 0.609375 -19.359375 L 0.75 -24.578125 L 3.015625 -24.578125 C 4.046875 -24.609375 4.8125 -24.785156 5.3125 -25.109375 C 5.8125 -25.441406 6.109375 -26.035156 6.203125 -26.890625 L 6.765625 -30.171875 L 10.625 -30.171875 L 10.625 -24.671875 L 16.828125 -24.671875 L 16.828125 -19.171875 L 10.625 -19.171875 L 10.625 -8.890625 C 10.625 -7.597656 10.9375 -6.734375 11.5625 -6.296875 C 12.1875 -5.859375 12.953125 -5.640625 13.859375 -5.640625 C 14.429688 -5.640625 15 -5.707031 15.5625 -5.84375 C 16.125 -5.988281 16.609375 -6.1875 17.015625 -6.4375 L 17.015625 -0.140625 C 16.046875 0.140625 15.148438 0.328125 14.328125 0.421875 C 13.515625 0.515625 12.8125 0.5625 12.21875 0.5625 Z M 12.21875 0.5625 "/></g></g></g><g clip-path="url(#503fe675a7)"><g clip-path="url(#db185fc92b)"><g clip-path="url(#e0af34feb2)"><g clip-path="url(#c74301486b)"><g clip-path="url(#f25c711d00)"><path fill="#1d1d1b" d="M 103.808594 251.214844 L 129.242188 191.699219 L 66.960938 206.542969 L 86.003906 219.839844 L 86.066406 219.914062 L 64.300781 237.894531 L 72.542969 247.890625 L 94.40625 229.832031 L 94.457031 229.890625 L 103.808594 251.214844 " fill-opacity="1" fill-rule="nonzero"/></g></g></g></g></g></svg>